<?xml version="1.0" encoding="UTF-8"?>
<svg width="275px" height="91px" viewBox="0 0 275 91" version="1.1" xmlns="http://www.w3.org/2000/svg" xmlns:xlink="http://www.w3.org/1999/xlink">
    <!-- Generator: Sketch 57.1 (83088) - https://sketch.com -->
    <title>logo</title>
    <desc>Created with Sketch.</desc>
    <defs>
        <path d="M21.068,52 L16.928,40.914 L11.362,40.914 L11.362,52 L3.358,52 L3.358,20.352 L18.538,20.352 C21.4513479,20.352 23.6516592,20.7583293 25.139,21.571 C26.6263408,22.3836707 27.6076643,23.5029929 28.083,24.929 C28.5583357,26.3550071 28.796,28.263988 28.796,30.656 C28.796,32.864011 28.5123362,34.7806585 27.945,36.406 C27.3776638,38.0313415 26.2506751,39.2119963 24.564,39.948 L29.44,52 L21.068,52 Z M15.502,34.566 C17.1580083,34.566 18.3309965,34.4740009 19.021,34.29 C19.7110034,34.1059991 20.1633323,33.7610025 20.378,33.255 C20.5926677,32.7489975 20.7,31.898006 20.7,30.702 C20.7,29.4753272 20.6080009,28.6090025 20.424,28.103 C20.2399991,27.5969975 19.8030034,27.2520009 19.113,27.068 C18.4229965,26.8839991 17.2500083,26.792 15.594,26.792 L11.362,26.792 L11.362,34.566 L15.502,34.566 Z M54.648,42.11 L40.618,42.11 C40.618,43.5820074 40.7329988,44.6093304 40.963,45.192 C41.1930012,45.7746696 41.6989961,46.1579991 42.481,46.342 C43.2630039,46.5260009 44.6659899,46.618 46.69,46.618 C48.8673442,46.618 51.2133208,46.4953346 53.728,46.25 L53.728,51.54 C52.7466618,51.7853346 51.4356749,51.9846659 49.795,52.138 C48.1543251,52.2913341 46.5366746,52.368 44.942,52.368 C41.3539821,52.368 38.7396749,51.9770039 37.099,51.195 C35.4583251,50.4129961 34.4080023,49.2246746 33.948,47.63 C33.4879977,46.0353254 33.258,43.5973497 33.258,40.316 C33.258,37.0959839 33.4879977,34.6733415 33.948,33.048 C34.4080023,31.4226585 35.4123256,30.2036707 36.961,29.391 C38.5096744,28.5783293 40.9399834,28.172 44.252,28.172 C47.5640166,28.172 49.948326,28.5629961 51.405,29.345 C52.861674,30.1270039 53.7663316,31.2923256 54.119,32.841 C54.4716684,34.3896744 54.648,36.8813162 54.648,40.316 L54.648,42.11 Z M44.206,33.554 C43.1019945,33.554 42.3046691,33.6613323 41.814,33.876 C41.3233309,34.0906677 41.0013341,34.5123302 40.848,35.141 C40.6946659,35.7696698 40.618,36.8199926 40.618,38.292 L47.702,38.292 C47.702,36.8199926 47.6100009,35.7620032 47.426,35.118 C47.2419991,34.4739968 46.9200023,34.0523343 46.46,33.853 C45.9999977,33.6536657 45.2486719,33.554 44.206,33.554 Z M59.57,28.54 L66.608,28.54 L66.792,31.346 L67.206,31.346 C67.8500032,30.149994 68.7393277,29.3220023 69.874,28.862 C71.0086723,28.4019977 72.3273258,28.172 73.83,28.172 C75.7313428,28.172 77.2263279,28.5246631 78.315,29.23 C79.4036721,29.9353369 80.2086641,31.1543247 80.73,32.887 C81.2513359,34.6196753 81.512,37.0499844 81.512,40.178 C81.512,43.3366825 81.2590025,45.7899913 80.753,47.538 C80.2469975,49.2860087 79.4496721,50.5203297 78.361,51.241 C77.2723279,51.9616703 75.7773428,52.322 73.876,52.322 C72.3119922,52.322 71.0010053,52.1303353 69.943,51.747 C68.8849947,51.3636647 68.01867,50.6200055 67.344,49.516 L66.976,49.516 L66.976,61.154 L59.57,61.154 L59.57,28.54 Z M70.518,46.066 C71.714006,46.066 72.5419977,45.9586677 73.002,45.744 C73.4620023,45.5293323 73.7609993,45.0463371 73.899,44.295 C74.0370007,43.5436629 74.106,42.2020097 74.106,40.27 C74.106,38.3379903 74.0370007,36.9963371 73.899,36.245 C73.7609993,35.4936629 73.4620023,35.0030011 73.002,34.773 C72.5419977,34.5429988 71.714006,34.428 70.518,34.428 C69.5979954,34.428 68.9080023,34.5353323 68.448,34.75 C67.9879977,34.9646677 67.6506677,35.3479972 67.436,35.9 C67.2519991,36.3293355 67.1293336,36.88133 67.068,37.556 C67.0066664,38.23067 66.976,39.1353277 66.976,40.27 C66.976,41.4353392 66.9989998,42.3476634 67.045,43.007 C67.0910002,43.6663366 67.2059991,44.1799982 67.39,44.548 C67.6046677,45.1306696 67.9419977,45.5293323 68.402,45.744 C68.8620023,45.9586677 69.5673286,46.066 70.518,46.066 Z M92.046,52.368 C89.7459885,52.368 88.0440055,51.8160055 86.94,50.712 C85.8359945,49.6079945 85.284,47.7986792 85.284,45.284 C85.284,43.4439908 85.4986645,42.0180051 85.928,41.006 C86.3573355,39.9939949 87.1009947,39.2580023 88.159,38.798 C89.2170053,38.3379977 90.7426567,38.108 92.736,38.108 C94.2386742,38.108 96.4006526,38.1693327 99.222,38.292 L99.222,37.464 C99.222,36.2986608 99.091668,35.4783357 98.831,35.003 C98.570332,34.5276643 98.0796703,34.2286673 97.359,34.106 C96.6383297,33.9833327 95.3580092,33.922 93.518,33.922 C91.2179885,33.922 88.9333447,34.0446654 86.664,34.29 L86.664,28.954 C89.5466811,28.4326641 92.6133171,28.172 95.864,28.172 C99.0840161,28.172 101.452992,28.50933 102.971,29.184 C104.489008,29.85867 105.477998,30.8553267 105.938,32.174 C106.398002,33.4926733 106.628,35.3939876 106.628,37.878 L106.628,52 L99.544,52 L99.36,49.286 L98.992,49.286 C98.1946627,50.5433396 97.2286723,51.3713313 96.094,51.77 C94.9593277,52.1686687 93.6100078,52.368 92.046,52.368 Z M95.542,46.986 C96.400671,46.986 97.0753309,46.8940009 97.566,46.71 C98.0566691,46.5259991 98.4399986,46.2040023 98.716,45.744 C99.053335,45.1613304 99.222,44.2106733 99.222,42.892 L99.222,41.972 L95.036,41.972 C94.2079959,41.972 93.6100018,42.0333327 93.242,42.156 C92.8739982,42.2786673 92.6210007,42.5163316 92.483,42.869 C92.3449993,43.2216684 92.276,43.7966627 92.276,44.594 C92.276,45.26867 92.3526659,45.774665 92.506,46.112 C92.6593341,46.449335 92.9583311,46.6793327 93.403,46.802 C93.8476689,46.9246673 94.5606618,46.986 95.542,46.986 Z M122.176,61.476 C120.734659,61.476 119.255008,61.4223339 117.737,61.315 C116.218992,61.2076661 114.969338,61.0620009 113.988,60.878 L113.988,55.634 L116.15,55.68 L120.382,55.726 C122.375343,55.726 123.770663,55.6110011 124.568,55.381 C125.365337,55.1509989 125.863666,54.7293364 126.063,54.116 C126.262334,53.5026636 126.362,52.3833415 126.362,50.758 L126.362,48.826 L125.994,48.826 C125.380664,49.8993387 124.522006,50.6736643 123.418,51.149 C122.313994,51.6243357 120.964675,51.862 119.37,51.862 C117.376657,51.862 115.866338,51.52467 114.839,50.85 C113.811662,50.17533 113.129335,49.201673 112.792,47.929 C112.454665,46.656327 112.286,44.9313442 112.286,42.754 L112.286,28.54 L119.692,28.54 L119.692,40.5 C119.692,42.2173419 119.760999,43.4056634 119.899,44.065 C120.037001,44.7243366 120.305331,45.1459991 120.704,45.33 C121.102669,45.5140009 121.838661,45.606 122.912,45.606 C123.954672,45.606 124.713664,45.4603348 125.189,45.169 C125.664336,44.8776652 125.978666,44.3870035 126.132,43.697 C126.285334,43.0069966 126.362,41.895341 126.362,40.362 L126.362,28.54 L133.768,28.54 L133.768,49.378 C133.768,52.5366825 133.538002,54.920992 133.078,56.531 C132.617998,58.141008 131.567675,59.3676624 129.927,60.211 C128.286325,61.0543375 125.702684,61.476 122.176,61.476 Z" id="path-1"></path>
        <path d="M5.152,101.1 L5.152,83.39 L0.92,83.39 L0.92,77.64 L5.152,77.64 L5.152,70.832 L12.65,70.832 L12.65,77.64 L17.71,77.64 L17.71,83.39 L12.65,83.39 L12.65,101.1 L5.152,101.1 Z M35.558,88.726 C35.558,87.0086581 35.4890007,85.81267 35.351,85.138 C35.2129993,84.46333 34.9446687,84.0340009 34.546,83.85 C34.1473313,83.6659991 33.4113387,83.574 32.338,83.574 C31.2953281,83.574 30.5363357,83.7196652 30.061,84.011 C29.5856643,84.3023348 29.2713341,84.8006631 29.118,85.506 C28.9646659,86.2113369 28.888,87.330659 28.888,88.864 L28.888,101.1 L21.482,101.1 L21.482,66.922 L28.888,66.922 L28.888,80.354 L29.256,80.354 C29.9000032,79.2499945 30.7816611,78.4603357 31.901,77.985 C33.0203389,77.5096643 34.346659,77.272 35.88,77.272 C37.8733433,77.272 39.3836615,77.6169966 40.411,78.307 C41.4383385,78.9970035 42.120665,79.978327 42.458,81.251 C42.795335,82.523673 42.964,84.2486558 42.964,86.426 L42.964,101.1 L35.558,101.1 L35.558,88.726 Z M69.184,91.21 L55.154,91.21 C55.154,92.6820074 55.2689988,93.7093304 55.499,94.292 C55.7290011,94.8746696 56.2349961,95.2579991 57.017,95.442 C57.7990039,95.6260009 59.2019899,95.718 61.226,95.718 C63.4033442,95.718 65.7493208,95.5953346 68.264,95.35 L68.264,100.64 C67.2826618,100.885335 65.9716749,101.084666 64.331,101.238 C62.6903251,101.391334 61.0726746,101.468 59.478,101.468 C55.8899821,101.468 53.2756749,101.077004 51.635,100.295 C49.9943251,99.5129961 48.9440023,98.3246746 48.484,96.73 C48.0239977,95.1353254 47.794,92.6973497 47.794,89.416 C47.794,86.1959839 48.0239977,83.7733415 48.484,82.148 C48.9440023,80.5226585 49.9483256,79.3036707 51.497,78.491 C53.0456744,77.6783293 55.4759834,77.272 58.788,77.272 C62.1000166,77.272 64.484326,77.6629961 65.941,78.445 C67.3976739,79.2270039 68.3023316,80.3923256 68.655,81.941 C69.0076684,83.4896744 69.184,85.9813162 69.184,89.416 L69.184,91.21 Z M58.742,82.654 C57.6379945,82.654 56.8406691,82.7613323 56.35,82.976 C55.8593309,83.1906677 55.5373341,83.6123302 55.384,84.241 C55.2306659,84.8696698 55.154,85.9199926 55.154,87.392 L62.238,87.392 C62.238,85.9199926 62.1460009,84.8620032 61.962,84.218 C61.7779991,83.5739968 61.4560023,83.1523343 60.996,82.953 C60.5359977,82.7536657 59.7846719,82.654 58.742,82.654 Z M86.25,69.452 L97.428,69.452 C102.089357,69.452 105.416657,69.919662 107.41,70.855 C109.403343,71.790338 110.645331,73.2623233 111.136,75.271 C111.626669,77.2796767 111.872,80.6146434 111.872,85.276 C111.872,89.9373566 111.626669,93.2723233 111.136,95.281 C110.645331,97.2896767 109.403343,98.761662 107.41,99.697 C105.416657,100.632338 102.089357,101.1 97.428,101.1 L86.25,101.1 L86.25,69.452 Z M97.244,94.614 C99.6053451,94.614 101.176996,94.4683348 101.959,94.177 C102.741004,93.8856652 103.231666,93.1803389 103.431,92.061 C103.630334,90.9416611 103.73,88.680017 103.73,85.276 C103.73,81.9026498 103.622668,79.6486723 103.408,78.514 C103.193332,77.3793277 102.695004,76.6663348 101.913,76.375 C101.130996,76.0836652 99.5746783,75.938 97.244,75.938 L94.208,75.938 L94.208,94.614 L97.244,94.614 Z M137.816,91.21 L123.786,91.21 C123.786,92.6820074 123.900999,93.7093304 124.131,94.292 C124.361001,94.8746696 124.866996,95.2579991 125.649,95.442 C126.431004,95.6260009 127.83399,95.718 129.858,95.718 C132.035344,95.718 134.381321,95.5953346 136.896,95.35 L136.896,100.64 C135.914662,100.885335 134.603675,101.084666 132.963,101.238 C131.322325,101.391334 129.704675,101.468 128.11,101.468 C124.521982,101.468 121.907675,101.077004 120.267,100.295 C118.626325,99.5129961 117.576002,98.3246746 117.116,96.73 C116.655998,95.1353254 116.426,92.6973497 116.426,89.416 C116.426,86.1959839 116.655998,83.7733415 117.116,82.148 C117.576002,80.5226585 118.580326,79.3036707 120.129,78.491 C121.677674,77.6783293 124.107983,77.272 127.42,77.272 C130.732017,77.272 133.116326,77.6629961 134.573,78.445 C136.029674,79.2270039 136.934332,80.3923256 137.287,81.941 C137.639668,83.4896744 137.816,85.9813162 137.816,89.416 L137.816,91.21 Z M127.374,82.654 C126.269994,82.654 125.472669,82.7613323 124.982,82.976 C124.491331,83.1906677 124.169334,83.6123302 124.016,84.241 C123.862666,84.8696698 123.786,85.9199926 123.786,87.392 L130.87,87.392 C130.87,85.9199926 130.778001,84.8620032 130.594,84.218 C130.409999,83.5739968 130.088002,83.1523343 129.628,82.953 C129.167998,82.7536657 128.416672,82.654 127.374,82.654 Z M142.738,101.1 L142.738,66.922 L150.236,66.922 L150.236,101.1 L142.738,101.1 Z M161.552,101.468 C159.251988,101.468 157.550006,100.916006 156.446,99.812 C155.341994,98.7079945 154.79,96.8986792 154.79,94.384 C154.79,92.5439908 155.004665,91.1180051 155.434,90.106 C155.863335,89.0939949 156.606995,88.3580023 157.665,87.898 C158.723005,87.4379977 160.248657,87.208 162.242,87.208 C163.744674,87.208 165.906653,87.2693327 168.728,87.392 L168.728,86.564 C168.728,85.3986608 168.597668,84.5783357 168.337,84.103 C168.076332,83.6276643 167.58567,83.3286673 166.865,83.206 C166.14433,83.0833327 164.864009,83.022 163.024,83.022 C160.723988,83.022 158.439345,83.1446654 156.17,83.39 L156.17,78.054 C159.052681,77.5326641 162.119317,77.272 165.37,77.272 C168.590016,77.272 170.958992,77.60933 172.477,78.284 C173.995008,78.95867 174.983998,79.9553267 175.444,81.274 C175.904002,82.5926733 176.134,84.4939876 176.134,86.978 L176.134,101.1 L169.05,101.1 L168.866,98.386 L168.498,98.386 C167.700663,99.6433396 166.734672,100.471331 165.6,100.87 C164.465328,101.268669 163.116008,101.468 161.552,101.468 Z M165.048,96.086 C165.906671,96.086 166.581331,95.9940009 167.072,95.81 C167.562669,95.6259991 167.945999,95.3040023 168.222,94.844 C168.559335,94.2613304 168.728,93.3106733 168.728,91.992 L168.728,91.072 L164.542,91.072 C163.713996,91.072 163.116002,91.1333327 162.748,91.256 C162.379998,91.3786673 162.127001,91.6163316 161.989,91.969 C161.850999,92.3216684 161.782,92.8966627 161.782,93.694 C161.782,94.36867 161.858666,94.874665 162.012,95.212 C162.165334,95.549335 162.464331,95.7793327 162.909,95.902 C163.353669,96.0246673 164.066662,96.086 165.048,96.086 Z M191.682,110.576 C190.240659,110.576 188.761008,110.522334 187.243,110.415 C185.724992,110.307666 184.475338,110.162001 183.494,109.978 L183.494,104.734 L185.656,104.78 L189.888,104.826 C191.881343,104.826 193.276663,104.711001 194.074,104.481 C194.871337,104.250999 195.369666,103.829336 195.569,103.216 C195.768334,102.602664 195.868,101.483341 195.868,99.858 L195.868,97.926 L195.5,97.926 C194.886664,98.9993387 194.028006,99.7736643 192.924,100.249 C191.819994,100.724336 190.470675,100.962 188.876,100.962 C186.882657,100.962 185.372338,100.62467 184.345,99.95 C183.317662,99.27533 182.635335,98.301673 182.298,97.029 C181.960665,95.756327 181.792,94.0313442 181.792,91.854 L181.792,77.64 L189.198,77.64 L189.198,89.6 C189.198,91.3173419 189.266999,92.5056634 189.405,93.165 C189.543001,93.8243366 189.811331,94.2459991 190.21,94.43 C190.608669,94.6140009 191.344661,94.706 192.418,94.706 C193.460672,94.706 194.219664,94.5603348 194.695,94.269 C195.170336,93.9776652 195.484666,93.4870035 195.638,92.797 C195.791334,92.1069966 195.868,90.995341 195.868,89.462 L195.868,77.64 L203.274,77.64 L203.274,98.478 C203.274,101.636682 203.044002,104.020992 202.584,105.631 C202.123998,107.241008 201.073675,108.467662 199.433,109.311 C197.792325,110.154338 195.208684,110.576 191.682,110.576 Z" id="path-2"></path>
    </defs>
    <g id="Page-1" stroke="none" stroke-width="1" fill="none" fill-rule="evenodd">
        <g id="logo" transform="translate(0.000000, -20.000000)">
            <g id="Repay-the-Delay" fill-rule="nonzero">
                <g id="Repay">
                    <use fill="#000000" xlink:href="#path-1"></use>
                    <use fill="#FFFFFF" xlink:href="#path-1"></use>
                </g>
                <g id="theDelay">
                    <use fill="#000000" xlink:href="#path-2"></use>
                    <use fill="#FFFFFF" xlink:href="#path-2"></use>
                </g>
            </g>
            <g id="Group" transform="translate(207.000000, 47.000000)">
                <path d="M59.4414423,21.7902367 C58.8460941,20.8656868 58.643316,19.7354028 58.8792097,18.6563558 C59.1151033,17.5773088 59.7696243,16.6411883 60.6939667,16.0608221 L59.6231812,14.3959922 C58.0708485,11.9788033 54.9007122,11.2756069 52.5009838,12.8161537 L30.7758261,26.7347315 L24.7587973,30.5893376 L22.4256637,32.0891844 C21.2469001,32.8428252 20.4155973,34.0474829 20.1190086,35.4318045 C19.8224199,36.8161262 20.0854882,38.2636916 20.8489566,39.4484324 L21.7625626,40.8682873 C23.6932114,39.633118 26.2390939,40.1872886 27.5045272,42.1181596 C28.0987318,43.0438891 28.3008319,44.1744882 28.0650596,45.2539209 C27.8292873,46.3333536 27.1755895,47.2702981 26.2520028,47.8525737 L27.3866426,49.6123939 C28.9382299,52.0211398 32.0991936,52.7215318 34.4941043,51.187233 L64.5743363,31.9192017 C65.7530999,31.1655609 66.5844027,29.9609033 66.8809914,28.5765816 C67.1775801,27.1922599 66.9145118,25.7446945 66.1510434,24.5599537 L65.1686713,23.060107 C63.2370421,24.2870591 60.6966579,23.7237922 59.4414423,21.7902367 L59.4414423,21.7902367 Z" id="Path" stroke="#07245B" stroke-width="2" fill="#FFFFFF" fill-rule="nonzero" stroke-linecap="round" stroke-linejoin="round"></path>
                <path d="M45,18 L57,37" id="Path" fill="#FFFFFF" fill-rule="nonzero"></path>
                <path d="M44,18 L45,19" id="Path" stroke="#07245B" stroke-width="2"></path>
                <path d="M47,21 L56,34" id="Path" stroke="#07245B" stroke-width="2" stroke-dasharray="5.68"></path>
                <path d="M56,35 L57,36" id="Path" stroke="#07245B" stroke-width="2"></path>
                <path d="M54.7613031,41.6392883 C54.7613031,38.4313388 57.8346042,37.4112996 59,37.4112996 L59,35.3268716 C58.976438,32.4138823 56.6400621,30.0506828 53.7335913,30 L17.2031052,30.054205 C14.3344852,30.0514801 12.0060477,32.3782467 12.0006211,35.2529557 L12.0006211,37.224046 C14.3334415,37.224046 16.2245661,39.1191872 16.2245661,41.4569624 C16.2245661,43.7947376 14.3334415,45.6898789 12.0006211,45.6898789 L12.0006211,47.8925723 C11.9793641,49.2469582 12.5045037,50.5526105 13.4570422,51.5136657 C14.4095807,52.474721 15.7088756,53.0098156 17.060504,52.9976962 L53.7385085,52.9976962 C55.1031121,53.0387687 56.427065,52.5292376 57.4134486,51.5833738 C58.3998322,50.63751 58.9660968,49.3344721 58.9852482,47.9664882 L58.9852482,45.8820602 C57.8604519,45.8913847 56.7791612,45.4470542 55.9847084,44.6490603 C55.1902555,43.8510665 54.7493826,42.7664488 54.7613031,41.6392883 Z" id="Path" stroke="#07245B" stroke-width="2" fill="#FFFFFF" fill-rule="nonzero" stroke-linejoin="round"></path>
                <path d="M44.9827574,30 L45.0172426,53" id="Path" fill="#FFFFFF" fill-rule="nonzero"></path>
                <path d="M45,31 L45,32" id="Path" stroke="#07245B" stroke-width="2"></path>
                <path d="M44.9876838,35 L45.0123162,51" id="Path" stroke="#07245B" stroke-width="2" stroke-dasharray="5.86"></path>
                <path d="M44.9975368,52 L45.0024632,53" id="Path" stroke="#07245B" stroke-width="2"></path>
                <path d="M21,20 L21,20 C19.638847,17.8461217 19.2792011,15.2275444 20.0109507,12.7987438 C21.163989,8.95544121 19.8576214,4.81022855 16.6923489,2.26854452 C13.5270763,-0.273139504 9.11528981,-0.719550661 5.48496462,1.13451382 C1.85463942,2.9885783 -0.291858818,6.78440919 0.0321553287,10.7771688 C0.422829793,16.0245583 5.08619713,20 10.4765157,20 L21,20 Z" id="Path" stroke="#07245B" stroke-width="2" fill="#FF585F" fill-rule="nonzero" stroke-linecap="round" stroke-linejoin="round"></path>
                <polygon id="Path" fill="#FFFFFF" fill-rule="nonzero" points="9.09355067 10.4975089 7 8.4 8.39404678 7 10.4875974 9.1024911 12.5811481 7 13.9751949 8.4 11.9064493 10.4975089 14 12.6 12.6059532 14 10.5124026 11.8975089 8.41885188 14 7.0248051 12.6"></polygon>
                <rect id="Rectangle" fill="#FF585F" fill-rule="nonzero" x="21" y="38" width="12" height="3"></rect>
                <rect id="Rectangle" fill="#FF585F" fill-rule="nonzero" x="21" y="44" width="19" height="3"></rect>
            </g>
        </g>
    </g>
</svg>