<?xml version="1.0" encoding="UTF-8"?>
<svg width="277px" height="92px" viewBox="0 0 277 92" version="1.1" xmlns="http://www.w3.org/2000/svg" xmlns:xlink="http://www.w3.org/1999/xlink">
    <!-- Generator: Sketch 57.1 (83088) - https://sketch.com -->
    <title>logo</title>
    <desc>Created with Sketch.</desc>
    <g id="Page-1" stroke="none" stroke-width="1" fill="none" fill-rule="evenodd">
        <g id="Mobile" transform="translate(-50.000000, -57.000000)">
            <g id="Group">
                <g id="logo" transform="translate(50.000000, 48.000000)">
                    <text id="Repay-the-Delay" font-family="Saira-Bold, Saira" font-size="46" font-weight="bold" line-spacing="49" letter-spacing="0.0410714322" fill="#FFFFFF">
                        <tspan x="0" y="52">Repay</tspan>
                        <tspan x="156.588357" y="62.7036743" font-size="15" letter-spacing="0.0133928583"> </tspan>
                        <tspan x="0" y="101.1">the Delay</tspan>
                    </text>
                    <g id="Group" transform="translate(209.000000, 42.000000)">
                        <path d="M59.4414423,21.7902367 C58.8460941,20.8656868 58.643316,19.7354028 58.8792097,18.6563558 C59.1151033,17.5773088 59.7696243,16.6411883 60.6939667,16.0608221 L59.6231812,14.3959922 C58.0708485,11.9788033 54.9007122,11.2756069 52.5009838,12.8161537 L30.7758261,26.7347315 L24.7587973,30.5893376 L22.4256637,32.0891844 C21.2469001,32.8428252 20.4155973,34.0474829 20.1190086,35.4318045 C19.8224199,36.8161262 20.0854882,38.2636916 20.8489566,39.4484324 L21.7625626,40.8682873 C23.6932114,39.633118 26.2390939,40.1872886 27.5045272,42.1181596 C28.0987318,43.0438891 28.3008319,44.1744882 28.0650596,45.2539209 C27.8292873,46.3333536 27.1755895,47.2702981 26.2520028,47.8525737 L27.3866426,49.6123939 C28.9382299,52.0211398 32.0991936,52.7215318 34.4941043,51.187233 L64.5743363,31.9192017 C65.7530999,31.1655609 66.5844027,29.9609033 66.8809914,28.5765816 C67.1775801,27.1922599 66.9145118,25.7446945 66.1510434,24.5599537 L65.1686713,23.060107 C63.2370421,24.2870591 60.6966579,23.7237922 59.4414423,21.7902367 L59.4414423,21.7902367 Z" id="Path" stroke="#07245B" stroke-width="2" fill="#FFFFFF" fill-rule="nonzero" stroke-linecap="round" stroke-linejoin="round"></path>
                        <path d="M45,18 L57,37" id="Path" fill="#FFFFFF" fill-rule="nonzero"></path>
                        <path d="M44,18 L45,19" id="Path" stroke="#07245B" stroke-width="2"></path>
                        <path d="M47,21 L56,34" id="Path" stroke="#07245B" stroke-width="2" stroke-dasharray="5.68"></path>
                        <path d="M56,35 L57,36" id="Path" stroke="#07245B" stroke-width="2"></path>
                        <path d="M54.7613031,41.6392883 C54.7613031,38.4313388 57.8346042,37.4112996 59,37.4112996 L59,35.3268716 C58.976438,32.4138823 56.6400621,30.0506828 53.7335913,30 L17.2031052,30.054205 C14.3344852,30.0514801 12.0060477,32.3782467 12.0006211,35.2529557 L12.0006211,37.224046 C14.3334415,37.224046 16.2245661,39.1191872 16.2245661,41.4569624 C16.2245661,43.7947376 14.3334415,45.6898789 12.0006211,45.6898789 L12.0006211,47.8925723 C11.9793641,49.2469582 12.5045037,50.5526105 13.4570422,51.5136657 C14.4095807,52.474721 15.7088756,53.0098156 17.060504,52.9976962 L53.7385085,52.9976962 C55.1031121,53.0387687 56.427065,52.5292376 57.4134486,51.5833738 C58.3998322,50.63751 58.9660968,49.3344721 58.9852482,47.9664882 L58.9852482,45.8820602 C57.8604519,45.8913847 56.7791612,45.4470542 55.9847084,44.6490603 C55.1902555,43.8510665 54.7493826,42.7664488 54.7613031,41.6392883 Z" id="Path" stroke="#07245B" stroke-width="2" fill="#FFFFFF" fill-rule="nonzero" stroke-linejoin="round"></path>
                        <path d="M44.9827574,30 L45.0172426,53" id="Path" fill="#FFFFFF" fill-rule="nonzero"></path>
                        <path d="M45,31 L45,32" id="Path" stroke="#07245B" stroke-width="2"></path>
                        <path d="M44.9876838,35 L45.0123162,51" id="Path" stroke="#07245B" stroke-width="2" stroke-dasharray="5.86"></path>
                        <path d="M44.9975368,52 L45.0024632,53" id="Path" stroke="#07245B" stroke-width="2"></path>
                        <path d="M21,20 L21,20 C19.638847,17.8461217 19.2792011,15.2275444 20.0109507,12.7987438 C21.163989,8.95544121 19.8576214,4.81022855 16.6923489,2.26854452 C13.5270763,-0.273139504 9.11528981,-0.719550661 5.48496462,1.13451382 C1.85463942,2.9885783 -0.291858818,6.78440919 0.0321553287,10.7771688 C0.422829793,16.0245583 5.08619713,20 10.4765157,20 L21,20 Z" id="Path" stroke="#07245B" stroke-width="2" fill="#FF585F" fill-rule="nonzero" stroke-linecap="round" stroke-linejoin="round"></path>
                        <polygon id="Path" fill="#FFFFFF" fill-rule="nonzero" points="9.09355067 10.4975089 7 8.4 8.39404678 7 10.4875974 9.1024911 12.5811481 7 13.9751949 8.4 11.9064493 10.4975089 14 12.6 12.6059532 14 10.5124026 11.8975089 8.41885188 14 7.0248051 12.6"></polygon>
                        <rect id="Rectangle" fill="#FF585F" fill-rule="nonzero" x="21" y="38" width="12" height="3"></rect>
                        <rect id="Rectangle" fill="#FF585F" fill-rule="nonzero" x="21" y="44" width="19" height="3"></rect>
                    </g>
                </g>
            </g>
        </g>
    </g>
</svg>
